# This file uses centimeters as units for non-parametric coordinates.

mtllib FloorWall.mtl
v -0.638585 -0.250000 2.500000
v 0.638585 -0.250000 2.500000
v -0.638585 0.250000 2.500000
v 0.638585 0.250000 2.500000
v -1.081508 0.250000 -2.500000
v 1.081508 0.250000 -2.500000
v -1.081508 -0.250000 -2.500000
v 1.081508 -0.250000 -2.500000
v 1.037721 -0.250000 -2.005696
v -1.037721 -0.250000 -2.005696
v -1.037721 0.250000 -2.005696
v 1.037721 0.250000 -2.005696
v 0.682373 -0.250000 2.005696
v -0.682373 -0.250000 2.005696
v -0.682373 0.250000 2.005696
v 0.682373 0.250000 2.005696
v -1.037721 1.250000 -2.005696
v 1.037721 1.250000 -2.005696
v 1.081508 1.250000 -2.500000
v -1.081508 1.250000 -2.500000
v -0.638585 1.250000 2.500000
v 0.638585 1.250000 2.500000
v 0.682373 1.250000 2.005696
v -0.682373 1.250000 2.005696
vt 0.375000 0.000000
vt 0.625000 0.000000
vt 0.375000 0.250000
vt 0.625000 0.250000
vt 0.375000 0.500000
vt 0.625000 0.500000
vt 0.375000 0.750000
vt 0.625000 0.750000
vt 0.375000 1.000000
vt 0.625000 1.000000
vt 0.875000 0.000000
vt 0.875000 0.250000
vt 0.125000 0.000000
vt 0.125000 0.250000
vt 0.625000 0.774715
vt 0.850285 0.000000
vt 0.149715 0.000000
vt 0.375000 0.774715
vt 0.149715 0.250000
vt 0.375000 0.475285
vt 0.625000 0.475285
vt 0.850285 0.250000
vt 0.625000 0.975285
vt 0.649715 0.000000
vt 0.350285 0.000000
vt 0.375000 0.975285
vt 0.350285 0.250000
vt 0.375000 0.274715
vt 0.625000 0.274715
vt 0.649715 0.250000
vt 0.375000 0.475285
vt 0.625000 0.475285
vt 0.625000 0.500000
vt 0.375000 0.500000
vt 0.375000 0.250000
vt 0.625000 0.250000
vt 0.625000 0.274715
vt 0.375000 0.274715
vn 0.000000 0.000000 1.000000
vn 0.000000 0.000000 1.000000
vn 0.000000 0.000000 1.000000
vn 0.000000 0.000000 1.000000
vn 0.000000 1.000000 -0.000000
vn 0.000000 1.000000 -0.000000
vn 0.000000 1.000000 -0.000000
vn 0.000000 1.000000 -0.000000
vn 0.000000 0.000000 -1.000000
vn 0.000000 0.000000 -1.000000
vn 0.000000 0.000000 -1.000000
vn 0.000000 0.000000 -1.000000
vn 0.000000 -1.000000 -0.000000
vn 0.000000 -1.000000 -0.000000
vn 0.000000 -1.000000 -0.000000
vn 0.000000 -1.000000 -0.000000
vn 0.996099 0.000000 0.088239
vn 0.996099 0.000000 0.088239
vn 0.996099 0.000000 0.088239
vn 0.996099 0.000000 0.088239
vn -0.996099 0.000000 0.088239
vn -0.996099 0.000000 0.088239
vn -0.996099 0.000000 0.088239
vn -0.996099 0.000000 0.088239
vn 0.000000 -1.000000 -0.000000
vn 0.000000 -1.000000 -0.000000
vn -0.996099 0.000000 0.088239
vn -0.996099 0.000000 0.088239
vn 0.000000 1.000000 0.000000
vn 0.000000 1.000000 0.000000
vn 0.000000 1.000000 0.000000
vn 0.000000 1.000000 0.000000
vn 0.996099 0.000000 0.088239
vn 0.996099 0.000000 0.088239
vn 0.000000 -1.000000 -0.000000
vn 0.000000 -1.000000 -0.000000
vn -0.996099 0.000000 0.088239
vn -0.996099 0.000000 0.088239
vn 0.000000 1.000000 0.000000
vn 0.000000 1.000000 0.000000
vn 0.000000 1.000000 0.000000
vn 0.000000 1.000000 0.000000
vn 0.996099 0.000000 0.088239
vn 0.996099 0.000000 0.088239
vn 0.000000 0.000000 1.000000
vn 0.000000 0.000000 1.000000
vn 0.000000 0.000000 1.000000
vn 0.000000 0.000000 1.000000
vn 0.996099 0.000000 0.088239
vn 0.996099 0.000000 0.088239
vn 0.000000 0.000000 -1.000000
vn 0.000000 0.000000 -1.000000
vn -0.996099 0.000000 0.088239
vn -0.996099 0.000000 0.088239
vn 0.000000 0.000000 1.000000
vn 0.000000 0.000000 1.000000
vn 0.996099 0.000000 0.088239
vn 0.996099 0.000000 0.088239
vn 0.000000 0.000000 -1.000000
vn 0.000000 0.000000 -1.000000
vn 0.000000 0.000000 -1.000000
vn 0.000000 0.000000 -1.000000
vn -0.996099 0.000000 0.088239
vn -0.996099 0.000000 0.088239
usemtl lambert2SG
f 1/1/1 2/2/2 4/4/3 3/3/4
f 17/31/5 18/32/6 19/33/7 20/34/8
f 5/5/9 6/6/10 8/8/11 7/7/12
f 7/7/13 8/8/14 9/15/15 10/18/16
f 12/22/17 9/16/18 8/11/19 6/12/20
f 7/13/21 10/17/22 11/19/23 5/14/24
f 10/18/16 9/15/15 13/23/25 14/26/26
f 11/19/23 10/17/22 14/25/27 15/27/28
f 15/28/29 16/29/30 12/21/31 11/20/32
f 16/30/33 13/24/34 9/16/18 12/22/17
f 14/26/26 13/23/25 2/10/35 1/9/36
f 15/27/28 14/25/27 1/1/37 3/3/38
f 21/35/39 22/36/40 23/37/41 24/38/42
f 2/2/43 13/24/34 16/30/33 4/4/44
f 11/20/45 12/21/46 18/32/47 17/31/48
f 12/21/17 6/6/20 19/33/49 18/32/50
f 6/6/10 5/5/9 20/34/51 19/33/52
f 5/5/24 11/20/23 17/31/53 20/34/54
f 3/3/4 4/4/3 22/36/55 21/35/56
f 4/4/44 16/29/33 23/37/57 22/36/58
f 16/29/59 15/28/60 24/38/61 23/37/62
f 15/28/28 3/3/38 21/35/63 24/38/64
