# This file uses centimeters as units for non-parametric coordinates.

mtllib FloorFence.mtl
v -0.414620 0.236641 2.485656
v 0.616740 1.028031 2.485656
v -0.566810 0.434979 2.485656
v 0.464549 1.226369 2.485656
v -0.566810 0.434979 2.035656
v 0.464549 1.226369 2.035656
v -0.414620 0.236641 2.035656
v 0.616740 1.028031 2.035656
v -0.763375 0.172964 -2.029851
v 0.878561 1.025340 -2.029851
v -0.878561 0.394847 -2.029851
v 0.763375 1.247223 -2.029851
v -0.878561 0.394847 -2.479851
v 0.763375 1.247223 -2.479851
v -0.763375 0.172964 -2.479851
v 0.878561 1.025340 -2.479851
v -0.638585 -0.250000 2.500000
v 0.638585 -0.250000 2.500000
v -0.638585 0.250000 2.500000
v 0.638585 0.250000 2.500000
v -1.081508 0.250000 -2.500000
v 1.081508 0.250000 -2.500000
v -1.081508 -0.250000 -2.500000
v 1.081508 -0.250000 -2.500000
v 1.037721 -0.250000 -2.005696
v -1.037721 -0.250000 -2.005696
v -1.037721 0.250000 -2.005696
v 1.037721 0.250000 -2.005696
v 0.682373 -0.250000 2.005696
v -0.682373 -0.250000 2.005696
v -0.682373 0.250000 2.005696
v 0.682373 0.250000 2.005696
v 0.430606 0.250000 2.500000
v 0.460132 0.250000 2.005696
v 0.699748 0.250000 -2.005696
v 0.729274 0.250000 -2.500000
v 0.729274 -0.250000 -2.500000
v 0.699748 -0.250000 -2.005696
v 0.460132 -0.250000 2.005696
v 0.430606 -0.250000 2.500000
v -0.420696 -0.250000 2.500000
v -0.420696 0.250000 2.500000
v -0.449543 0.250000 2.005696
v -0.683644 0.250000 -2.005696
v -0.712491 0.250000 -2.500000
v -0.712491 -0.250000 -2.500000
v -0.683644 -0.250000 -2.005696
v -0.449543 -0.250000 2.005696
v -1.037721 1.250000 -2.005696
v -0.683644 1.250000 -2.005696
v -0.712491 1.250000 -2.500000
v -1.081508 1.250000 -2.500000
v -0.638585 1.250000 2.500000
v -0.420696 1.250000 2.500000
v -0.449543 1.250000 2.005696
v -0.682373 1.250000 2.005696
v 0.430606 1.250000 2.500000
v 0.638585 1.250000 2.500000
v 0.682373 1.250000 2.005696
v 0.460132 1.250000 2.005696
v 0.699748 1.250000 -2.005696
v 0.729274 1.250000 -2.500000
v 1.037721 1.250000 -2.005696
v 1.081508 1.250000 -2.500000
vt 0.375000 0.000000
vt 0.625000 0.000000
vt 0.375000 0.250000
vt 0.625000 0.250000
vt 0.375000 0.500000
vt 0.625000 0.500000
vt 0.375000 0.750000
vt 0.625000 0.750000
vt 0.375000 1.000000
vt 0.625000 1.000000
vt 0.875000 0.000000
vt 0.875000 0.250000
vt 0.125000 0.000000
vt 0.125000 0.250000
vt 0.375000 0.000000
vt 0.625000 0.000000
vt 0.625000 0.250000
vt 0.375000 0.250000
vt 0.625000 0.500000
vt 0.375000 0.500000
vt 0.625000 0.750000
vt 0.375000 0.750000
vt 0.625000 1.000000
vt 0.375000 1.000000
vt 0.875000 0.000000
vt 0.875000 0.250000
vt 0.125000 0.000000
vt 0.125000 0.250000
vt 0.375000 0.000000
vt 0.417651 0.000000
vt 0.417651 0.250000
vt 0.375000 0.250000
vt 0.375000 0.475285
vt 0.417651 0.475285
vt 0.417651 0.500000
vt 0.375000 0.500000
vt 0.375000 0.500000
vt 0.417651 0.500000
vt 0.417651 0.750000
vt 0.375000 0.750000
vt 0.417651 0.774715
vt 0.375000 0.774715
vt 0.850285 0.250000
vt 0.850285 0.000000
vt 0.875000 0.000000
vt 0.875000 0.250000
vt 0.125000 0.000000
vt 0.149715 0.000000
vt 0.149715 0.250000
vt 0.125000 0.250000
vt 0.417651 0.975285
vt 0.375000 0.975285
vt 0.350285 0.000000
vt 0.350285 0.250000
vt 0.375000 0.274715
vt 0.417651 0.274715
vt 0.417651 0.475285
vt 0.375000 0.475285
vt 0.649715 0.250000
vt 0.649715 0.000000
vt 0.417651 1.000000
vt 0.375000 1.000000
vt 0.375000 0.250000
vt 0.417651 0.250000
vt 0.417651 0.274715
vt 0.375000 0.274715
vt 0.625000 0.000000
vt 0.625000 0.250000
vt 0.584289 0.250000
vt 0.625000 0.250000
vt 0.625000 0.274715
vt 0.584289 0.274715
vt 0.584289 0.475285
vt 0.584289 0.274715
vt 0.625000 0.274715
vt 0.625000 0.475285
vt 0.584289 0.500000
vt 0.584289 0.475285
vt 0.625000 0.475285
vt 0.625000 0.500000
vt 0.584289 0.750000
vt 0.584289 0.500000
vt 0.625000 0.500000
vt 0.625000 0.750000
vt 0.584289 0.774715
vt 0.625000 0.774715
vt 0.584289 0.975285
vt 0.625000 0.975285
vt 0.584289 1.000000
vt 0.625000 1.000000
vt 0.584289 0.250000
vt 0.584289 0.000000
vn -0.000001 0.000000 1.000000
vn -0.000001 0.000000 1.000000
vn -0.000001 0.000000 1.000000
vn -0.000001 0.000000 1.000000
vn -0.608762 0.793353 0.000000
vn -0.608762 0.793353 0.000000
vn -0.608762 0.793353 0.000000
vn -0.608762 0.793353 0.000000
vn 0.000000 0.000000 -1.000000
vn 0.000000 0.000000 -1.000000
vn 0.000000 0.000000 -1.000000
vn 0.000000 0.000000 -1.000000
vn 0.608762 -0.793353 0.000000
vn 0.608762 -0.793353 0.000000
vn 0.608762 -0.793353 0.000000
vn 0.608762 -0.793353 0.000000
vn 0.793353 0.608761 0.000000
vn 0.793353 0.608761 0.000000
vn 0.793353 0.608761 0.000000
vn 0.793353 0.608761 0.000000
vn -0.793353 -0.608761 0.000000
vn -0.793353 -0.608761 0.000000
vn -0.793353 -0.608761 0.000000
vn -0.793353 -0.608761 0.000000
vn -0.000000 0.000000 1.000000
vn -0.000000 0.000000 1.000000
vn -0.000000 0.000000 1.000000
vn -0.000000 0.000000 1.000000
vn -0.460743 0.887533 0.000000
vn -0.460743 0.887533 0.000000
vn -0.460743 0.887533 0.000000
vn -0.460743 0.887533 0.000000
vn -0.000000 0.000000 -1.000000
vn -0.000000 0.000000 -1.000000
vn -0.000000 0.000000 -1.000000
vn -0.000000 0.000000 -1.000000
vn 0.460743 -0.887533 0.000000
vn 0.460743 -0.887533 0.000000
vn 0.460743 -0.887533 0.000000
vn 0.460743 -0.887533 0.000000
vn 0.887534 0.460743 0.000000
vn 0.887534 0.460743 0.000000
vn 0.887534 0.460743 0.000000
vn 0.887534 0.460743 0.000000
vn -0.887534 -0.460743 0.000000
vn -0.887534 -0.460743 0.000000
vn -0.887534 -0.460743 0.000000
vn -0.887534 -0.460743 0.000000
vn 0.000000 0.000000 1.000000
vn 0.000000 0.000000 1.000000
vn 0.000000 0.000000 1.000000
vn 0.000000 0.000000 1.000000
vn 0.000000 1.000000 0.000000
vn 0.000000 1.000000 0.000000
vn 0.000000 1.000000 0.000000
vn 0.000000 1.000000 0.000000
vn 0.000000 0.000000 -1.000000
vn 0.000000 0.000000 -1.000000
vn 0.000000 0.000000 -1.000000
vn 0.000000 0.000000 -1.000000
vn 0.000000 -1.000000 0.000000
vn 0.000000 -1.000000 0.000000
vn 0.000000 -1.000000 0.000000
vn 0.000000 -1.000000 0.000000
vn 0.996099 0.000000 0.088239
vn 0.996099 0.000000 0.088239
vn 0.996099 0.000000 0.088239
vn 0.996099 0.000000 0.088239
vn -0.996099 0.000000 0.088239
vn -0.996099 0.000000 0.088239
vn -0.996099 0.000000 0.088239
vn -0.996099 0.000000 0.088239
vn 0.000000 -1.000000 0.000000
vn 0.000000 -1.000000 0.000000
vn -0.996099 0.000000 0.088239
vn -0.996099 0.000000 0.088239
vn 0.000000 1.000000 0.000000
vn 0.000000 1.000000 0.000000
vn 0.000000 1.000000 0.000000
vn 0.000000 1.000000 0.000000
vn 0.996099 0.000000 0.088239
vn 0.996099 0.000000 0.088239
vn 0.000000 -1.000000 0.000000
vn 0.000000 -1.000000 0.000000
vn -0.996099 0.000000 0.088239
vn -0.996099 0.000000 0.088239
vn 0.000000 1.000000 -0.000000
vn 0.000000 1.000000 -0.000000
vn 0.000000 1.000000 -0.000000
vn 0.000000 1.000000 -0.000000
vn 0.996099 0.000000 0.088239
vn 0.996099 0.000000 0.088239
vn 0.000000 1.000000 -0.000000
vn 0.000000 1.000000 -0.000000
vn 0.000000 1.000000 -0.000000
vn 0.000000 1.000000 -0.000000
vn 0.000000 1.000000 0.000000
vn 0.000000 1.000000 0.000000
vn 0.000000 1.000000 0.000000
vn 0.000000 1.000000 0.000000
vn 0.000000 1.000000 0.000000
vn 0.000000 1.000000 0.000000
vn 0.000000 1.000000 0.000000
vn 0.000000 1.000000 0.000000
vn 0.000000 0.000000 -1.000000
vn 0.000000 0.000000 -1.000000
vn 0.000000 0.000000 -1.000000
vn 0.000000 0.000000 -1.000000
vn 0.000000 -1.000000 0.000000
vn 0.000000 -1.000000 0.000000
vn 0.000000 -1.000000 0.000000
vn 0.000000 -1.000000 0.000000
vn 0.000000 -1.000000 0.000000
vn 0.000000 -1.000000 0.000000
vn 0.000000 -1.000000 0.000000
vn 0.000000 -1.000000 0.000000
vn 0.000000 0.000000 1.000000
vn 0.000000 0.000000 1.000000
vn 0.000000 0.000000 1.000000
vn 0.000000 0.000000 1.000000
vn 0.000000 1.000000 0.000000
vn 0.000000 1.000000 0.000000
vn 0.000000 1.000000 0.000000
vn 0.000000 1.000000 0.000000
vn 0.000000 0.000000 1.000000
vn 0.000000 0.000000 1.000000
vn 0.000000 0.000000 1.000000
vn 0.000000 0.000000 1.000000
vn 0.998302 0.000000 -0.058260
vn 0.998302 0.000000 -0.058260
vn 0.998302 0.000000 -0.058260
vn 0.998302 0.000000 -0.058260
vn 0.000000 0.000000 -1.000000
vn 0.000000 0.000000 -1.000000
vn -0.996099 0.000000 0.088239
vn -0.996099 0.000000 0.088239
vn 0.000000 0.000000 1.000000
vn 0.000000 0.000000 1.000000
vn 0.998302 0.000000 -0.058260
vn 0.998302 0.000000 -0.058260
vn 0.998302 0.000000 -0.058260
vn 0.998302 0.000000 -0.058260
vn 0.000000 0.000000 -1.000000
vn 0.000000 0.000000 -1.000000
vn 0.000000 0.000000 -1.000000
vn 0.000000 0.000000 -1.000000
vn -0.996099 0.000000 0.088239
vn -0.996099 0.000000 0.088239
vn 0.000000 0.000000 1.000000
vn 0.000000 0.000000 1.000000
vn 0.996099 0.000000 0.088239
vn 0.996099 0.000000 0.088239
vn 0.000000 0.000000 -1.000000
vn 0.000000 0.000000 -1.000000
vn 0.000000 0.000000 -1.000000
vn 0.000000 0.000000 -1.000000
vn -0.998221 0.000000 -0.059628
vn -0.998221 0.000000 -0.059628
vn -0.998221 0.000000 -0.059628
vn -0.998221 0.000000 -0.059628
vn -0.998221 0.000000 -0.059627
vn -0.998221 0.000000 -0.059627
vn -0.998221 0.000000 -0.059627
vn -0.998221 0.000000 -0.059627
vn 0.000000 0.000000 1.000000
vn 0.000000 0.000000 1.000000
vn 0.000000 0.000000 1.000000
vn 0.000000 0.000000 1.000000
vn 0.996099 0.000000 0.088239
vn 0.996099 0.000000 0.088239
vn 0.000000 0.000000 -1.000000
vn 0.000000 0.000000 -1.000000
usemtl initialShadingGroup
f 1/1/1 2/2/2 4/4/3 3/3/4
f 3/3/5 4/4/6 6/6/7 5/5/8
f 5/5/9 6/6/10 8/8/11 7/7/12
f 7/7/13 8/8/14 2/10/15 1/9/16
f 2/2/17 8/11/18 6/12/19 4/4/20
f 7/13/21 1/1/22 3/3/23 5/14/24
f 9/15/25 10/16/26 12/17/27 11/18/28
f 11/18/29 12/17/30 14/19/31 13/20/32
f 13/20/33 14/19/34 16/21/35 15/22/36
f 15/22/37 16/21/38 10/23/39 9/24/40
f 10/16/41 16/25/42 14/26/43 12/17/44
f 15/27/45 9/15/46 11/18/47 13/28/48
usemtl lambert2SG
f 17/29/49 41/30/50 42/31/51 19/32/52
f 49/33/53 50/34/54 51/35/55 52/36/56
f 21/37/57 45/38/58 46/39/59 23/40/60
f 23/40/61 46/39/62 47/41/63 26/42/64
f 28/43/65 25/44/66 24/45/67 22/46/68
f 23/47/69 26/48/70 27/49/71 21/50/72
f 26/42/64 47/41/63 48/51/73 30/52/74
f 27/49/71 26/48/70 30/53/75 31/54/76
f 31/55/77 43/56/78 44/57/79 27/58/80
f 32/59/81 29/60/82 25/44/66 28/43/65
f 30/52/74 48/51/73 41/61/83 17/62/84
f 31/54/76 30/53/75 17/29/85 19/32/86
f 53/63/87 54/64/88 55/65/89 56/66/90
f 18/67/91 29/60/82 32/59/81 20/68/92
f 57/69/93 58/70/94 59/71/95 60/72/96
f 35/73/97 34/74/98 32/75/99 28/76/100
f 62/77/101 61/78/102 63/79/103 64/80/104
f 37/81/105 36/82/106 22/83/107 24/84/108
f 38/85/109 37/81/110 24/84/111 25/86/112
f 39/87/113 38/85/109 25/86/112 29/88/114
f 40/89/115 39/87/113 29/88/114 18/90/116
f 33/91/117 40/92/118 18/67/119 20/68/120
f 41/30/50 40/92/118 33/91/117 42/31/51
f 43/56/78 42/31/121 33/91/122 34/74/98
f 44/57/79 43/56/78 34/74/98 35/73/97
f 45/38/123 44/57/79 35/73/97 36/82/124
f 46/39/59 45/38/58 36/82/106 37/81/105
f 47/41/63 46/39/62 37/81/110 38/85/109
f 48/51/73 47/41/63 38/85/109 39/87/113
f 41/61/83 48/51/73 39/87/113 40/89/115
f 27/58/125 44/57/126 50/34/127 49/33/128
f 44/57/129 45/38/130 51/35/131 50/34/132
f 45/38/58 21/37/57 52/36/133 51/35/134
f 21/37/72 27/58/71 49/33/135 52/36/136
f 19/32/52 42/31/51 54/64/137 53/63/138
f 42/31/139 43/56/140 55/65/141 54/64/142
f 43/56/143 31/55/144 56/66/145 55/65/146
f 31/55/76 19/32/86 53/63/147 56/66/148
f 33/91/117 20/68/120 58/70/149 57/69/150
f 20/68/92 32/75/81 59/71/151 58/70/152
f 32/75/153 34/74/154 60/72/155 59/71/156
f 34/74/157 33/91/158 57/69/159 60/72/160
f 36/82/161 35/73/162 61/78/163 62/77/164
f 35/73/165 28/76/166 63/79/167 61/78/168
f 28/76/65 22/83/68 64/80/169 63/79/170
f 22/83/107 36/82/106 62/77/171 64/80/172
